# xmcd
#
# Track frame offsets:
#	150
#	14824
#	32660
#	46121
#	60961
#	76275
#	90851
#	106512
#	120278
#	138280
#	156421
#	173922
#	190518
# Disc length: 2629 seconds
# Revision: 1
# Processed by: cddbd v1.5.1PL2 Copyright (c) Steve Scherf et al.
#
# Submitted via: libkcddb 0.21
#
DISCID=8c0a430d
DTITLE=Toby Keith - Unleashed
DYEAR=1900
DGENRE=Country Rock
TTITLE0=Courtesy of the Red, White and Blue (The Angry American)
TTITLE1=Who's Your Daddy?
TTITLE2=Good to go to Mexico
TTITLE3=It's All Good
TTITLE4=Beer For My Horses
TTITLE5=Losing My Touch
TTITLE6=Huckleberry
TTITLE7=It Works For Me
TTITLE8=Ain't It Just Like You
TTITLE9=Rock You Baby
TTITLE10=Rodeo Moon
TTITLE11=That's Not How It Is
TTITLE12=Intro to Angry American
EXTD=
EXTT0=
EXTT1=
EXTT2=
EXTT3=
EXTT4=
EXTT5=
EXTT6=
EXTT7=
EXTT8=
EXTT9=
EXTT10=
EXTT11=
EXTT12=
PLAYORDER=
